<svg width="80" height="41" viewBox="0 0 80 41" fill="none" xmlns="http://www.w3.org/2000/svg">
<g clip-path="url(#clip0_22022_33833)">
<rect width="80" height="39.9731" transform="translate(0 0.0800781)" fill="url(#paint0_linear_22022_33833)" fill-opacity="0.23"/>
<rect opacity="0.1" width="23.449" height="41.3805" transform="matrix(0.707344 0.706869 -0.707344 0.706869 56.9375 -18.5098)" fill="url(#paint1_linear_22022_33833)"/>
<path opacity="0.47" d="M78.4023 -14.3516L40.4023 23.6229L2.40234 -14.3516H78.4023Z" fill="url(#paint2_linear_22022_33833)"/>
<path d="M70.0142 8.90536C66.9543 8.90536 64.4738 11.3859 64.4738 14.4458C64.4738 17.5058 66.9543 19.9863 70.0142 19.9863C73.0741 19.9863 75.5547 17.5058 75.5547 14.4458C75.5547 11.3859 73.0741 8.90536 70.0142 8.90536Z" fill="#E8A37D"/>
<path fill-rule="evenodd" clip-rule="evenodd" d="M42.7664 17.7392L49.4812 24.5806C51.1401 26.3544 51.5351 26.6256 53.5854 26.6256H61.0938V20.9865H53.51L46.5355 13.9375L42.7664 17.7392Z" fill="#2172FC"/>
<path d="M73.0573 20.9883L69.4575 24.6004L65.8575 20.9883H60.3879V41.0778H80.125V26.6876C80.125 23.9169 77.9374 20.9943 74.7554 20.9943V20.9883H73.0573Z" fill="#328DFD"/>
<g style="mix-blend-mode:multiply" opacity="0.67">
<path d="M80.1199 36.8127V28.6593L78.0221 26.4805L67.871 37.0233H60.3828V41.0739H76.1264C76.3486 40.8526 76.5797 40.617 76.8212 40.3662L80.1199 36.8127Z" fill="url(#paint3_linear_22022_33833)"/>
</g>
<path d="M79.9849 28.234L80 28.2491L78.7488 29.5093L74.0765 34.3898C71.0126 37.4755 69.998 37.6813 65.9772 37.6813H53.6V31.7155H66.6926L75.0672 23.2812L79.6185 27.8649L80 28.2184L79.9849 28.234Z" fill="url(#paint4_linear_22022_33833)"/>
<path d="M66.3594 10.275C67.334 9.42152 68.6104 8.9043 70.0077 8.9043C73.0676 8.9043 75.5482 11.3849 75.5482 14.4448C75.5482 15.842 75.0309 17.1185 74.1775 18.0931L66.3594 10.275Z" fill="#935A30"/>
<path d="M79.7591 7.56117C79.7591 9.26152 78.3807 10.6399 76.6803 10.6399H73.6016V7.56117C73.6016 5.86082 74.98 4.48242 76.6803 4.48242C78.3807 4.48242 79.7591 5.86082 79.7591 7.56117Z" fill="#935A30"/>
<path d="M47.0134 35.5837L47.0134 30.3616L52.2355 30.3616L52.2355 35.5837L47.0134 35.5837Z" fill="#E8A37D"/>
<path d="M11.1108 8.90145C14.1707 8.90145 16.6512 11.382 16.6512 14.4419C16.6512 17.5019 14.1707 19.9824 11.1108 19.9824C8.05086 19.9824 5.57031 17.5019 5.57031 14.4419C5.57031 11.382 8.05086 8.90145 11.1108 8.90145Z" fill="#8B5C38"/>
<path fill-rule="evenodd" clip-rule="evenodd" d="M38.3586 17.7372L31.6438 24.5786C29.9849 26.3525 29.5899 26.6237 27.5396 26.6237H20.0312L22.8751 20.9845H27.615L34.5895 13.9355L38.3586 17.7372Z" fill="#8B5C38"/>
<path d="M39.81 9.28125L35.8906 13.2006L39.81 17.12L43.7294 13.2007L39.81 9.28125Z" fill="#8B5C38"/>
<path d="M8.06769 20.9844L11.6675 24.5965L15.2675 20.9844H20.7371V41.0739H1V26.6837C1 23.913 3.18762 20.9904 6.36961 20.9904V20.9844H8.06769Z" fill="#0DC47C"/>
<path d="M1 40.5805V28.8489L3.14266 26.8789L14.4576 37.282H20.7371V41.0724H5.02315C4.84769 40.9154 4.66726 40.7515 4.48125 40.5805H1Z" fill="#0DC37C"/>
<rect x="29.6016" y="13.2812" width="21.2" height="14.4" fill="#F84949"/>
<rect x="28.4023" y="13.2812" width="23.6" height="3.6" fill="#F84949"/>
<rect x="28.4023" y="13.2812" width="23.6" height="3.6" fill="url(#paint5_linear_22022_33833)"/>
<path d="M4.53644 29.4556L4.52344 29.4686L5.60295 30.5481L9.63394 34.729C12.2773 37.3724 13.1527 37.5487 16.6216 37.5486H27.3001V32.4381H16.0044L8.77918 25.2129L4.85258 29.1395L4.52344 29.4423L4.53644 29.4556Z" fill="#8B5C38"/>
<rect x="38" y="13.2305" width="3.92489" height="14.4815" fill="#F8D33A"/>
<path d="M28.8064 35.5818L28.8064 30.3596L34.0285 30.3596L34.0285 35.5818L28.8064 35.5818Z" fill="#8B5C38"/>
<path d="M6.5071 31.5302L2.40234 27.4254L6.94885 22.8789L11.131 26.9062L6.5071 31.5302Z" fill="#0DC37C"/>
<path d="M15.0797 10.581C14.073 9.54557 12.665 8.90234 11.1069 8.90234C8.04696 8.90234 5.56641 11.3829 5.56641 14.4428C5.56641 16.001 6.20962 17.4089 7.24502 18.4156L15.0797 10.581Z" fill="#1E2026"/>
<path d="M15.4018 10.2807C14.3643 9.21367 12.9133 8.55078 11.3075 8.55078C8.15405 8.55078 5.59766 11.1072 5.59766 14.2607C5.59766 15.8665 6.26054 17.3175 7.32759 18.3549L15.4018 10.2807Z" fill="#328DFD"/>
<rect width="8.2446" height="1.23669" transform="matrix(-0.707107 0.707107 0.707107 0.707107 17.1211 6.87891)" fill="#328DFD"/>
<rect x="20.7344" y="20.9844" width="3.17204" height="5.63918" fill="#3DD19B"/>
<path d="M24 10.455L24.7753 9.67969L25.5505 10.455L24.7753 11.2302L24 10.455Z" fill="#F8D33A"/>
<path d="M58 16.8553L58.7753 16.0801L59.5505 16.8553L58.7753 17.6306L58 16.8553Z" fill="#F8D33A"/>
<path d="M52.3984 6.71338L53.4321 5.67969L54.4658 6.71338L53.4321 7.74707L52.3984 6.71338Z" fill="#F8D33A"/>
<path d="M47.1992 20.8553L47.9745 20.0801L48.7498 20.8553L47.9745 21.6306L47.1992 20.8553Z" fill="#F8D33A"/>
<path d="M38.6789 6.07617L40.9332 6.08011L40.9305 9.49023L43.3922 7.0831L44.9849 8.64854L42.5236 11.0553L46.0016 11.0614L45.9998 13.2713L33.6016 13.2498L33.6033 11.0398L37.0815 11.0459L34.6242 8.63071L36.2194 7.07083L38.6762 9.4855L38.6789 6.07617Z" fill="#F8D33A"/>
</g>
<defs>
<linearGradient id="paint0_linear_22022_33833" x1="46.4" y1="39.9731" x2="46.4" y2="15.1898" gradientUnits="userSpaceOnUse">
<stop stop-color="#CACED3"/>
<stop offset="1" stop-color="white" stop-opacity="0"/>
</linearGradient>
<linearGradient id="paint1_linear_22022_33833" x1="11.7245" y1="0" x2="11.7245" y2="41.3805" gradientUnits="userSpaceOnUse">
<stop stop-color="#F8D33A"/>
<stop offset="1" stop-color="#F8D33A" stop-opacity="0"/>
</linearGradient>
<linearGradient id="paint2_linear_22022_33833" x1="10.1188" y1="-9.72587" x2="10.1195" y2="19.4516" gradientUnits="userSpaceOnUse">
<stop stop-color="white" stop-opacity="0"/>
<stop offset="1" stop-color="#FFCE00"/>
</linearGradient>
<linearGradient id="paint3_linear_22022_33833" x1="69.434" y1="26.4805" x2="67.9478" y2="44.4761" gradientUnits="userSpaceOnUse">
<stop stop-color="#328DFD"/>
<stop offset="1" stop-color="#328DFD" stop-opacity="0"/>
</linearGradient>
<linearGradient id="paint4_linear_22022_33833" x1="66.8" y1="23.2812" x2="66.8" y2="37.6813" gradientUnits="userSpaceOnUse">
<stop stop-color="#328DFD"/>
<stop offset="1" stop-color="#4297FF"/>
</linearGradient>
<linearGradient id="paint5_linear_22022_33833" x1="27.0023" y1="16.8813" x2="51.4023" y2="16.8813" gradientUnits="userSpaceOnUse">
<stop stop-color="#FC6E6E"/>
<stop offset="1" stop-color="#FC6E6E" stop-opacity="0"/>
</linearGradient>
<clipPath id="clip0_22022_33833">
<rect width="80" height="39.9731" fill="white" transform="translate(0 0.0800781)"/>
</clipPath>
</defs>
</svg>
