<svg xmlns:xlink="http://www.w3.org/1999/xlink" xmlns="http://www.w3.org/2000/svg" width="201" height="24" viewBox="0 0 201 24" fill="none">
<rect x="190.625" width="8" height="19" fill="url(#paint0_linear_16595_218702)"/>
<path d="M188.5 20C188.5 18.8954 189.395 18 190.5 18H198.5C199.605 18 200.5 18.8954 200.5 20V24H188.5V20Z" fill="url(#paint1_linear_16595_218702)"/>
<rect x="2.625" width="8" height="19" fill="url(#paint2_linear_16595_218702)"/>
<path d="M0.5 20C0.5 18.8954 1.39543 18 2.5 18H10.5C11.6046 18 12.5 18.8954 12.5 20V24H0.5V20Z" fill="url(#paint3_linear_16595_218702)"/>
<defs>
<linearGradient id="paint0_linear_16595_218702" x1="190.681" y1="6.33333" x2="199.569" y2="6.33333" gradientUnits="userSpaceOnUse">
<stop offset="0.4375" stop-color="#F5BE4A"/>
<stop offset="0.78125" stop-color="#AF7921"/>
</linearGradient>
<linearGradient id="paint1_linear_16595_218702" x1="188.466" y1="21" x2="199.92" y2="21" gradientUnits="userSpaceOnUse">
<stop offset="0.276042" stop-color="#F5BE4A"/>
<stop offset="0.744792" stop-color="#B17B22"/>
</linearGradient>
<linearGradient id="paint2_linear_16595_218702" x1="2.68056" y1="6.33333" x2="11.5694" y2="6.33333" gradientUnits="userSpaceOnUse">
<stop offset="0.4375" stop-color="#F5BE4A"/>
<stop offset="0.78125" stop-color="#AF7921"/>
</linearGradient>
<linearGradient id="paint3_linear_16595_218702" x1="0.465909" y1="21" x2="11.9205" y2="21" gradientUnits="userSpaceOnUse">
<stop offset="0.276042" stop-color="#F5BE4A"/>
<stop offset="0.744792" stop-color="#B17B22"/>
</linearGradient>
</defs>
</svg>