<svg xmlns:xlink="http://www.w3.org/1999/xlink" xmlns="http://www.w3.org/2000/svg" width="40" height="40" viewBox="0 0 40 40" fill="none">
<rect width="14.1667" height="7.5" transform="matrix(1 0 0 -1 3.33398 17.084)" fill="url(#paint0_linear_16490_9971)"/>
<rect x="36.666" y="17.084" width="14.1667" height="7.5" transform="rotate(-180 36.666 17.084)" fill="url(#paint1_linear_16490_9971)"/>
<rect width="12.5" height="17.9167" transform="matrix(1 0 0 -1 5 35)" fill="url(#paint2_linear_16490_9971)"/>
<rect x="35" y="35" width="12.5" height="17.9167" transform="rotate(-180 35 35)" fill="url(#paint3_linear_16490_9971)"/>
<rect x="19.166" y="9.58398" width="1.66667" height="7.5" fill="#76808F"/>
<rect x="19.166" y="17.084" width="1.66667" height="17.9167" fill="url(#paint4_linear_16490_9971)"/>
<path d="M20.834 3.33398H19.1673V6.73876L16.84 4.41141L15.6615 5.58992L17.9889 7.91732L14.584 7.91732V9.58398L25.4173 9.58398V7.91732H22.0124L24.3398 5.58992L23.1613 4.41141L20.834 6.73876V3.33398Z" fill="url(#paint5_linear_16490_9971)"/>
<path d="M30 4.99935L31.6667 6.66602L33.3333 4.99935L31.6667 3.33268L30 4.99935Z" fill="#474D57"/>
<path d="M0.833984 21.25L2.08398 22.5L3.33398 21.25L2.08398 20L0.833984 21.25Z" fill="#474D57"/>
<path d="M25.834 37.916H27.084V36.666H25.834V37.916Z" fill="#474D57"/>
<defs>
<linearGradient id="paint0_linear_16490_9971" x1="7.08333" y1="0" x2="7.08333" y2="7.5" gradientUnits="userSpaceOnUse">
<stop stop-color="#F0B90B"/>
<stop offset="1" stop-color="#F8D33A"/>
</linearGradient>
<linearGradient id="paint1_linear_16490_9971" x1="43.7493" y1="17.084" x2="43.7493" y2="24.584" gradientUnits="userSpaceOnUse">
<stop stop-color="#F0B90B"/>
<stop offset="1" stop-color="#F8D33A"/>
</linearGradient>
<linearGradient id="paint2_linear_16490_9971" x1="6.25" y1="0" x2="6.25" y2="17.9167" gradientUnits="userSpaceOnUse">
<stop stop-color="#F0B90B"/>
<stop offset="1" stop-color="#F8D33A"/>
</linearGradient>
<linearGradient id="paint3_linear_16490_9971" x1="41.25" y1="35" x2="41.25" y2="52.9167" gradientUnits="userSpaceOnUse">
<stop stop-color="#F0B90B"/>
<stop offset="1" stop-color="#F8D33A"/>
</linearGradient>
<linearGradient id="paint4_linear_16490_9971" x1="19.9993" y1="17.084" x2="19.9993" y2="35.0007" gradientUnits="userSpaceOnUse">
<stop stop-color="#929AA5"/>
<stop offset="1" stop-color="#76808F"/>
</linearGradient>
<linearGradient id="paint5_linear_16490_9971" x1="20.0007" y1="9.58398" x2="20.0007" y2="3.33398" gradientUnits="userSpaceOnUse">
<stop stop-color="#929AA5"/>
<stop offset="1" stop-color="#76808F"/>
</linearGradient>
</defs>
</svg>