<svg xmlns:xlink="http://www.w3.org/1999/xlink" xmlns="http://www.w3.org/2000/svg" width="133" height="20" viewBox="0 0 133 20" fill="none">
<path d="M4.41945 9.67974L2.20972 11.8222L0 9.67974L2.20972 7.53724L4.41945 9.67974ZM9.8102 4.45298L13.5983 8.14938L15.808 6.00688L12.0199 2.31047L9.8102 0.167969L7.60048 2.31047L3.7881 6.00688L5.99782 8.14938L9.8102 4.45298ZM17.4107 7.53724L15.201 9.67974L17.4107 11.8222L19.6204 9.67974L17.4107 7.53724ZM9.8102 14.883L6.0221 11.2101L3.7881 13.3526L7.5762 17.0255L9.78592 19.168L11.9956 17.0255L15.808 13.3526L13.5983 11.2101L9.8102 14.883ZM9.8102 11.8222L12.0199 9.67974L9.8102 7.53724L7.60048 9.67974L9.8102 11.8222ZM33.1944 12.0341V12.0106C33.1944 10.6215 32.4174 9.91518 31.179 9.4443C31.956 9.02051 32.5874 8.36128 32.5874 7.18408V7.16053C32.5874 5.51245 31.2275 4.45298 29.0421 4.45298H24.0399V14.883H29.1635C31.5918 14.883 33.1944 13.9412 33.1944 12.0341ZM30.2319 7.58433C30.2319 8.36128 29.5763 8.69089 28.5322 8.69089H26.3467V6.47776H28.6778C29.6734 6.47776 30.2319 6.85446 30.2319 7.56078V7.58433ZM30.839 11.7516C30.839 12.5286 30.2077 12.8817 29.1635 12.8817H26.3467V10.598H29.0907C30.3048 10.598 30.839 11.0217 30.839 11.7281V11.7516ZM38.1481 14.883V4.45298H35.7927V14.883H38.1481ZM50.8722 14.883V4.45298H48.5411V10.8805L43.4903 4.45298H41.3048V14.883H43.636V8.2671L48.8568 14.9065H50.8722V14.883ZM63.9849 14.883L59.3712 4.38234H57.1857L52.572 14.883H54.976L55.9716 12.5521H60.5124L61.508 14.883H63.9849ZM59.6868 10.5273H56.8215L58.2542 7.13699L59.6868 10.5273ZM75.252 14.883V4.45298H72.9209V10.8805L67.8701 4.45298H65.6847V14.883H68.0158V8.2671L73.2366 14.9065H75.252V14.883ZM87.4905 13.2113L85.985 11.7281C85.1351 12.4815 84.3823 12.9524 83.1682 12.9524C81.3227 12.9524 80.06 11.4691 80.06 9.67974V9.6562C80.06 7.86685 81.3713 6.40713 83.1682 6.40713C84.2366 6.40713 85.0865 6.85446 85.9121 7.58433L87.4176 5.88916C86.4221 4.92386 85.2079 4.28817 83.1682 4.28817C79.8657 4.28817 77.5589 6.7132 77.5589 9.67974V9.70329C77.5589 12.6934 79.9143 15.0713 83.0711 15.0713C85.1351 15.0713 86.3735 14.365 87.4905 13.2113ZM97.5678 14.883V12.8346H91.74V10.645H96.815V8.59672H91.74V6.47776H97.495V4.42943H89.3846V14.8594H97.5678V14.883Z" fill="#F0B90B"></path>
<path d="M112.564 7.95021C112.564 5.8258 110.997 4.45905 108.517 4.45905H104.318V14.8582H106.19V11.5156H108.304C110.647 11.5156 112.564 10.2975 112.564 7.95021ZM110.662 7.99477C110.662 9.10897 109.78 9.86663 108.365 9.86663H106.19V6.12292H108.365C109.765 6.12292 110.662 6.76173 110.662 7.99477Z" fill="white"></path>
<path d="M118.918 4.38477H117.183L112.498 14.8582H114.415L115.51 12.3476H120.546L121.626 14.8582H123.603L118.918 4.38477ZM119.861 10.7283H116.195L118.02 6.5686L119.861 10.7283Z" fill="white"></path>
<path d="M128.771 10.7134L133 4.45905H130.855L127.843 9.06441L124.861 4.45905H122.655L126.885 10.758V14.8582H128.771V10.7134Z" fill="white"></path>
</svg>